<svg width="53" height="53" viewBox="0 0 53 53" fill="none" xmlns="http://www.w3.org/2000/svg">
<g filter="url(#filter0_i_68_168)">
<path d="M45.977 26.7262C45.982 25.7143 45.982 26.7923 45.982 25.6499C45.982 16.0103 45.982 11.1905 42.9874 8.19582C39.9926 5.20117 35.1728 5.20117 25.5332 5.20117C15.8936 5.20117 11.0738 5.20117 8.07912 8.19582C5.08447 11.1905 5.08447 16.0103 5.08447 25.6499C5.08447 35.2895 5.08447 40.1093 8.07912 43.1041C11.0738 46.0987 15.8936 46.0987 25.5332 46.0987C25.8989 46.0987 26.2575 46.0987 26.6095 46.0985" stroke="#555555" stroke-width="4.1328" stroke-linecap="round"/>
</g>
<g filter="url(#filter1_i_68_168)">
<path d="M5.08447 15.9634H45.982" stroke="#555555" stroke-width="4.1328" stroke-linejoin="round"/>
</g>
<g filter="url(#filter2_i_68_168)">
<path d="M36.2954 5.20117L29.8379 15.9637" stroke="#555555" stroke-width="4.1328" stroke-linejoin="round"/>
</g>
<g filter="url(#filter3_i_68_168)">
<path d="M21.2285 5.20117L14.771 15.9637" stroke="#555555" stroke-width="4.1328" stroke-linejoin="round"/>
</g>
<g filter="url(#filter4_i_68_168)">
<path d="M33.0993 34.0158C35.4081 32.6388 37.4233 33.1938 38.6341 34.0776C39.1304 34.44 39.3786 34.6213 39.5246 34.6213C39.6705 34.6213 39.9187 34.44 40.415 34.0776C41.6258 33.1938 43.641 32.6388 45.9498 34.0158C48.9801 35.8228 49.6656 41.7846 42.6762 46.8141C41.3449 47.7722 40.6794 48.2511 39.5246 48.2511C38.3697 48.2511 37.7042 47.7722 36.3729 46.8141C29.3835 41.7846 30.0691 35.8228 33.0993 34.0158Z" stroke="#555555" stroke-width="4.1328" stroke-linecap="round"/>
</g>
<defs>
<filter id="filter0_i_68_168" x="3.01807" y="3.13477" width="45.0303" height="46.0635" filterUnits="userSpaceOnUse" color-interpolation-filters="sRGB">
<feFlood flood-opacity="0" result="BackgroundImageFix"/>
<feBlend mode="normal" in="SourceGraphic" in2="BackgroundImageFix" result="shape"/>
<feColorMatrix in="SourceAlpha" type="matrix" values="0 0 0 0 0 0 0 0 0 0 0 0 0 0 0 0 0 0 127 0" result="hardAlpha"/>
<feOffset dy="1.0332"/>
<feGaussianBlur stdDeviation="1.0332"/>
<feComposite in2="hardAlpha" operator="arithmetic" k2="-1" k3="1"/>
<feColorMatrix type="matrix" values="0 0 0 0 0 0 0 0 0 0 0 0 0 0 0 0 0 0 0.6 0"/>
<feBlend mode="normal" in2="shape" result="effect1_innerShadow_68_168"/>
</filter>
<filter id="filter1_i_68_168" x="5.08447" y="13.897" width="40.8975" height="5.16601" filterUnits="userSpaceOnUse" color-interpolation-filters="sRGB">
<feFlood flood-opacity="0" result="BackgroundImageFix"/>
<feBlend mode="normal" in="SourceGraphic" in2="BackgroundImageFix" result="shape"/>
<feColorMatrix in="SourceAlpha" type="matrix" values="0 0 0 0 0 0 0 0 0 0 0 0 0 0 0 0 0 0 127 0" result="hardAlpha"/>
<feOffset dy="1.0332"/>
<feGaussianBlur stdDeviation="1.0332"/>
<feComposite in2="hardAlpha" operator="arithmetic" k2="-1" k3="1"/>
<feColorMatrix type="matrix" values="0 0 0 0 0 0 0 0 0 0 0 0 0 0 0 0 0 0 0.6 0"/>
<feBlend mode="normal" in2="shape" result="effect1_innerShadow_68_168"/>
</filter>
<filter id="filter2_i_68_168" x="28.0659" y="4.13818" width="10.0015" height="13.9219" filterUnits="userSpaceOnUse" color-interpolation-filters="sRGB">
<feFlood flood-opacity="0" result="BackgroundImageFix"/>
<feBlend mode="normal" in="SourceGraphic" in2="BackgroundImageFix" result="shape"/>
<feColorMatrix in="SourceAlpha" type="matrix" values="0 0 0 0 0 0 0 0 0 0 0 0 0 0 0 0 0 0 127 0" result="hardAlpha"/>
<feOffset dy="1.0332"/>
<feGaussianBlur stdDeviation="1.0332"/>
<feComposite in2="hardAlpha" operator="arithmetic" k2="-1" k3="1"/>
<feColorMatrix type="matrix" values="0 0 0 0 0 0 0 0 0 0 0 0 0 0 0 0 0 0 0.6 0"/>
<feBlend mode="normal" in2="shape" result="effect1_innerShadow_68_168"/>
</filter>
<filter id="filter3_i_68_168" x="12.999" y="4.13818" width="10.0015" height="13.9219" filterUnits="userSpaceOnUse" color-interpolation-filters="sRGB">
<feFlood flood-opacity="0" result="BackgroundImageFix"/>
<feBlend mode="normal" in="SourceGraphic" in2="BackgroundImageFix" result="shape"/>
<feColorMatrix in="SourceAlpha" type="matrix" values="0 0 0 0 0 0 0 0 0 0 0 0 0 0 0 0 0 0 127 0" result="hardAlpha"/>
<feOffset dy="1.0332"/>
<feGaussianBlur stdDeviation="1.0332"/>
<feComposite in2="hardAlpha" operator="arithmetic" k2="-1" k3="1"/>
<feColorMatrix type="matrix" values="0 0 0 0 0 0 0 0 0 0 0 0 0 0 0 0 0 0 0.6 0"/>
<feBlend mode="normal" in2="shape" result="effect1_innerShadow_68_168"/>
</filter>
<filter id="filter4_i_68_168" x="28.8491" y="31.1162" width="21.3511" height="20.2344" filterUnits="userSpaceOnUse" color-interpolation-filters="sRGB">
<feFlood flood-opacity="0" result="BackgroundImageFix"/>
<feBlend mode="normal" in="SourceGraphic" in2="BackgroundImageFix" result="shape"/>
<feColorMatrix in="SourceAlpha" type="matrix" values="0 0 0 0 0 0 0 0 0 0 0 0 0 0 0 0 0 0 127 0" result="hardAlpha"/>
<feOffset dy="1.0332"/>
<feGaussianBlur stdDeviation="1.0332"/>
<feComposite in2="hardAlpha" operator="arithmetic" k2="-1" k3="1"/>
<feColorMatrix type="matrix" values="0 0 0 0 0 0 0 0 0 0 0 0 0 0 0 0 0 0 0.6 0"/>
<feBlend mode="normal" in2="shape" result="effect1_innerShadow_68_168"/>
</filter>
</defs>
</svg>
