<svg width="53" height="53" viewBox="0 0 53 53" fill="none" xmlns="http://www.w3.org/2000/svg">
<g filter="url(#filter0_i_68_164)">
<path d="M24.5757 17.6453H28.8807" stroke="#555555" stroke-width="4.1328" stroke-linecap="round"/>
</g>
<g filter="url(#filter1_i_68_164)">
<path d="M5.20312 24.1024C5.20312 16.9995 5.20312 13.4481 7.40972 11.2415C9.61629 9.03491 13.1677 9.03491 20.2706 9.03491H22.4231C29.5259 9.03491 33.0774 9.03491 35.2841 11.2415C37.4906 13.4481 37.4906 16.9995 37.4906 24.1024V28.4074C37.4906 35.5102 37.4906 39.0616 35.2841 41.2684C33.0774 43.4749 29.5259 43.4749 22.4231 43.4749H20.2706C13.1677 43.4749 9.61629 43.4749 7.40972 41.2684C5.20312 39.0616 5.20312 35.5102 5.20312 28.4074V24.1024Z" stroke="#555555" stroke-width="4.1328"/>
</g>
<g filter="url(#filter2_i_68_164)">
<path d="M37.4907 19.5951L37.7617 19.3715C42.316 15.6138 44.5931 13.7349 46.4232 14.6421C48.2532 15.5493 48.2532 18.5569 48.2532 24.5722V27.9383C48.2532 33.9537 48.2532 36.9612 46.4232 37.8684C44.5931 38.7755 42.316 36.8968 37.7617 33.139L37.4907 32.9153" stroke="#555555" stroke-width="4.1328" stroke-linecap="round"/>
</g>
<defs>
<filter id="filter0_i_68_164" x="22.5093" y="15.5789" width="8.43799" height="5.16601" filterUnits="userSpaceOnUse" color-interpolation-filters="sRGB">
<feFlood flood-opacity="0" result="BackgroundImageFix"/>
<feBlend mode="normal" in="SourceGraphic" in2="BackgroundImageFix" result="shape"/>
<feColorMatrix in="SourceAlpha" type="matrix" values="0 0 0 0 0 0 0 0 0 0 0 0 0 0 0 0 0 0 127 0" result="hardAlpha"/>
<feOffset dy="1.0332"/>
<feGaussianBlur stdDeviation="1.0332"/>
<feComposite in2="hardAlpha" operator="arithmetic" k2="-1" k3="1"/>
<feColorMatrix type="matrix" values="0 0 0 0 0 0 0 0 0 0 0 0 0 0 0 0 0 0 0.6 0"/>
<feBlend mode="normal" in2="shape" result="effect1_innerShadow_68_164"/>
</filter>
<filter id="filter1_i_68_164" x="3.13672" y="6.96851" width="36.4204" height="39.606" filterUnits="userSpaceOnUse" color-interpolation-filters="sRGB">
<feFlood flood-opacity="0" result="BackgroundImageFix"/>
<feBlend mode="normal" in="SourceGraphic" in2="BackgroundImageFix" result="shape"/>
<feColorMatrix in="SourceAlpha" type="matrix" values="0 0 0 0 0 0 0 0 0 0 0 0 0 0 0 0 0 0 127 0" result="hardAlpha"/>
<feOffset dy="1.0332"/>
<feGaussianBlur stdDeviation="1.0332"/>
<feComposite in2="hardAlpha" operator="arithmetic" k2="-1" k3="1"/>
<feColorMatrix type="matrix" values="0 0 0 0 0 0 0 0 0 0 0 0 0 0 0 0 0 0 0.6 0"/>
<feBlend mode="normal" in2="shape" result="effect1_innerShadow_68_164"/>
</filter>
<filter id="filter2_i_68_164" x="35.4243" y="12.3474" width="14.8955" height="28.8489" filterUnits="userSpaceOnUse" color-interpolation-filters="sRGB">
<feFlood flood-opacity="0" result="BackgroundImageFix"/>
<feBlend mode="normal" in="SourceGraphic" in2="BackgroundImageFix" result="shape"/>
<feColorMatrix in="SourceAlpha" type="matrix" values="0 0 0 0 0 0 0 0 0 0 0 0 0 0 0 0 0 0 127 0" result="hardAlpha"/>
<feOffset dy="1.0332"/>
<feGaussianBlur stdDeviation="1.0332"/>
<feComposite in2="hardAlpha" operator="arithmetic" k2="-1" k3="1"/>
<feColorMatrix type="matrix" values="0 0 0 0 0 0 0 0 0 0 0 0 0 0 0 0 0 0 0.6 0"/>
<feBlend mode="normal" in2="shape" result="effect1_innerShadow_68_164"/>
</filter>
</defs>
</svg>
