<svg width="51" height="51" viewBox="0 0 51 51" fill="none" xmlns="http://www.w3.org/2000/svg">
<g filter="url(#filter0_i_70_587)">
<path d="M44.4551 35.9395C43.0768 27.647 38.7861 21.472 35.0561 17.8451C33.9706 16.7896 33.428 16.2619 32.2291 15.7736C31.0302 15.2852 29.9997 15.2852 27.9388 15.2852H23.412C21.3511 15.2852 20.3206 15.2852 19.1217 15.7736C17.9229 16.2619 17.3802 16.7896 16.2948 17.8451C12.5647 21.472 8.27397 27.647 6.89565 35.9395C5.87014 42.1093 11.5619 46.7852 17.9229 46.7852H33.428C39.7889 46.7852 45.4807 42.1093 44.4551 35.9395Z" stroke="#555555" stroke-width="3.15" stroke-linecap="round" stroke-linejoin="round"/>
<path d="M15.7147 9.9147C15.2814 9.28409 14.6535 8.42815 15.9507 8.23297C17.284 8.03234 18.6685 8.94506 20.0237 8.92631C21.2498 8.90934 21.8744 8.36557 22.5445 7.58918C23.2501 6.77162 24.3427 4.78467 25.6758 4.78467C27.0089 4.78467 28.1015 6.77162 28.8071 7.58918C29.4772 8.36557 30.1017 8.90934 31.3277 8.92631C32.6831 8.94506 34.0676 8.03234 35.4009 8.23297C36.6981 8.42815 36.0702 9.28409 35.6369 9.9147L33.6778 12.766C32.8399 13.9857 32.421 14.5956 31.544 14.9401C30.6673 15.2847 29.5341 15.2847 27.268 15.2847H24.0836C21.8175 15.2847 20.6843 15.2847 19.8075 14.9401C18.9306 14.5956 18.5116 13.9857 17.6736 12.766L15.7147 9.9147Z" stroke="#555555" stroke-width="3.15" stroke-linejoin="round"/>
<path d="M29.0922 27.7138C28.6382 26.0378 26.3274 24.5254 23.5535 25.6569C20.7796 26.7881 20.339 30.4285 24.5348 30.8153C26.4311 30.99 27.6676 30.6125 28.7995 31.6807C29.9316 32.7488 30.1418 35.7194 27.248 36.52C24.3542 37.3205 21.4888 36.0697 21.1768 34.2933M25.3437 23.6694V25.2663M25.3437 36.7663V38.3694" stroke="#555555" stroke-width="3.15" stroke-linecap="round" stroke-linejoin="round"/>
</g>
<defs>
<filter id="filter0_i_70_587" x="0.475586" y="0.584961" width="50.4004" height="51.4331" filterUnits="userSpaceOnUse" color-interpolation-filters="sRGB">
<feFlood flood-opacity="0" result="BackgroundImageFix"/>
<feBlend mode="normal" in="SourceGraphic" in2="BackgroundImageFix" result="shape"/>
<feColorMatrix in="SourceAlpha" type="matrix" values="0 0 0 0 0 0 0 0 0 0 0 0 0 0 0 0 0 0 127 0" result="hardAlpha"/>
<feOffset dy="1.0332"/>
<feGaussianBlur stdDeviation="1.0332"/>
<feComposite in2="hardAlpha" operator="arithmetic" k2="-1" k3="1"/>
<feColorMatrix type="matrix" values="0 0 0 0 0 0 0 0 0 0 0 0 0 0 0 0 0 0 0.6 0"/>
<feBlend mode="normal" in2="shape" result="effect1_innerShadow_70_587"/>
</filter>
</defs>
</svg>
