<svg width="51" height="52" viewBox="0 0 51 52" fill="none" xmlns="http://www.w3.org/2000/svg">
<g filter="url(#filter0_i_70_578)">
<path d="M5.35547 26.1849C5.35547 16.7803 5.35547 12.0781 8.27707 9.15647C11.1987 6.23486 15.901 6.23486 25.3055 6.23486C34.7099 6.23486 39.4122 6.23486 42.3339 9.15647C45.2555 12.0781 45.2555 16.7803 45.2555 26.1849C45.2555 35.5894 45.2555 40.2917 42.3339 43.2132C39.4122 46.1349 34.7099 46.1349 25.3055 46.1349C15.901 46.1349 11.1987 46.1349 8.27707 43.2132C5.35547 40.2917 5.35547 35.5894 5.35547 26.1849Z" stroke="#555555" stroke-width="3.78"/>
<path d="M14.8818 26.2427H29.5306M29.5306 26.2427C29.5306 27.4406 25.0046 31.466 25.0046 31.466M29.5306 26.2427C29.5306 25.0134 25.0046 21.0674 25.0046 21.0674M35.8818 17.7747V34.5747" stroke="#555555" stroke-width="3.78" stroke-linecap="round"/>
</g>
<defs>
<filter id="filter0_i_70_578" x="0.105469" y="0.984863" width="50.4004" height="51.4331" filterUnits="userSpaceOnUse" color-interpolation-filters="sRGB">
<feFlood flood-opacity="0" result="BackgroundImageFix"/>
<feBlend mode="normal" in="SourceGraphic" in2="BackgroundImageFix" result="shape"/>
<feColorMatrix in="SourceAlpha" type="matrix" values="0 0 0 0 0 0 0 0 0 0 0 0 0 0 0 0 0 0 127 0" result="hardAlpha"/>
<feOffset dy="1.0332"/>
<feGaussianBlur stdDeviation="1.0332"/>
<feComposite in2="hardAlpha" operator="arithmetic" k2="-1" k3="1"/>
<feColorMatrix type="matrix" values="0 0 0 0 0 0 0 0 0 0 0 0 0 0 0 0 0 0 0.6 0"/>
<feBlend mode="normal" in2="shape" result="effect1_innerShadow_70_578"/>
</filter>
</defs>
</svg>
